<svg viewBox="0 0 64 64" role="img" aria-label="烟火食间" fill="none" xmlns="http://www.w3.org/2000/svg">
  <rect width="64" height="64" rx="16" fill="#047857"/>
  <path d="M18 31c0-7.7 6.3-14 14-14s14 6.3 14 14v2H18v-2Z" fill="#FDF7E7"/>
  <path d="M14 33h36v4c0 8.8-7.2 16-16 16h-4c-8.8 0-16-7.2-16-16v-4Z" fill="#F59E0B"/>
  <path d="M20 37h24" stroke="#78350F" stroke-width="3" stroke-linecap="round" opacity=".35"/>
  <path d="M25 45h14" stroke="#78350F" stroke-width="3" stroke-linecap="round" opacity=".35"/>
  <path d="M24 14c-2.3-3-1.8-5.4 1.3-7.4M32 13c-1.8-3.2-.9-5.8 2.6-7.6M40 15c-1.5-2.8-.7-5.2 2.4-7" stroke="#FBBF24" stroke-width="3" stroke-linecap="round"/>
  <circle cx="32" cy="30" r="4" fill="#047857"/>
  <path d="M28 30c1.4-4.4 6.6-4.4 8 0" stroke="#064E3B" stroke-width="2" stroke-linecap="round"/>
</svg>
